# xmcd
#
# Track frame offsets: 
#        150
#        18689
#        32289
#        57471
#        88558
#        107775
#        132162
#        152761
#        167931
#        190763
#        210862
#        227507
#        245286
#        265266
#        279658
#        299682
#
# Disc length: 4272 seconds
#
# Revision: 12
# Processed by: cddbd v1.4PL0 Copyright (c) Steve Scherf et al.
# Submitted via: ExactAudioCopy v0.90b4
#
DISCID=dd10ae10
DTITLE=WAITS Tom - Mule Variations
DYEAR=1999
DGENRE=Soul
TTITLE0=Big In Japan
TTITLE1=Lowside Of The Road
TTITLE2=Hold On
TTITLE3=Get Behind The Mule
TTITLE4=House Where Nobody Lives
TTITLE5=Cold Water
TTITLE6=Pony
TTITLE7=What's He Building?
TTITLE8=Black Market Baby
TTITLE9=Eyeball Kid
TTITLE10=Picture In A Frame
TTITLE11=Chocolate Jesus
TTITLE12=Georgia Lee
TTITLE13=Filipino Box Spring Hog
TTITLE14=Take It With Me
TTITLE15=Come On Up To The House
EXTD=YEAR: 1999 ID3G: 8
EXTT0=
EXTT1=
EXTT2=
EXTT3=
EXTT4=
EXTT5=
EXTT6=
EXTT7=
EXTT8=
EXTT9=
EXTT10=
EXTT11=
EXTT12=
EXTT13=
EXTT14=
EXTT15=
PLAYORDER=
